# xmcd
#
# Track frame offsets:
#	150
#	18053
#	35690
#	55577
#	72257
#	88312
#	107775
#	123812
#	137829
#	157050
#	175373
#	186476
#	205529
#	223627
#	240011
#	258351
#	274547
#	301556
#
# Disc length: 4035 seconds
#
# Revision: 2
# Processed by: cddbd v1.5.2PL0 Copyright (c) Steve Scherf et al.
# Submitted via: audiograbber 1.83.01
#
DISCID=f10fc112
DTITLE=Chartbuster  - ESP482-04  Hits of 2003
DYEAR=2003
DGENRE=
TTITLE0=Keith, Toby - American Solider
TTITLE1=Brook and Dunn - You Can't Take The Honky Tonk Out Of The Girl
TTITLE2=Evans, Sara - Backseat Of A Greyhound Bus
TTITLE3=Worley, Darryl - Tennessee River Run
TTITLE4=Wolf, Brad - Strictly Business
TTITLE5=Twain, Shania - I'm Going To Get You Good
TTITLE6=Adkins, Trace - Chrome
TTITLE7=Nichols, Joe - Cool To Be A Fool
TTITLE8=Wynonna - Heaven Help Me
TTITLE9=Morgan, Craig - Every Friday Afternoon
TTITLE10=Strait, George - Honk If You Honky Tonk
TTITLE11=Evans, Sara - Perfect
TTITLE12=Otto, James - Days of Our Lifes
TTITLE13=Rushlow - I Can't Be Your Friend
TTITLE14=Twain, Shania - Shes Not Just A Pretty Face
TTITLE15=Nichols, Joe - She Only Smokes When She Drinks
TTITLE16=Strait, George - Tell Me Something Bad About Tulsa
TTITLE17=na - na
EXTD=
EXTT0=
EXTT1=
EXTT2=
EXTT3=
EXTT4=
EXTT5=
EXTT6=
EXTT7=
EXTT8=
EXTT9=
EXTT10=
EXTT11=
EXTT12=
EXTT13=
EXTT14=
EXTT15=
EXTT16=
EXTT17=
PLAYORDER=
